<svg xmlns="http://www.w3.org/2000/svg" width="256" height="256" fill="none"><path fill="url(#a)" d="M238.837 133.274V68.615a8 8 0 0 0-4-6.928L131.991 2.309a8 8 0 0 0-8 0l-25.99 15.007v.005L20.947 61.806a8 8 0 0 0-3.785 6.8v64.667L98 86.603v152.082l25.991 15.006a8 8 0 0 0 8 0L158 238.674V86.602l80.837 46.672Z"/><path fill="#3E4636" d="M98 17.316 21.163 61.678a8.122 8.122 0 0 0-.216.129L98 17.32v-.005ZM17.163 133.274v54.123a8 8 0 0 0 4 6.928L98 238.685V86.603l-80.837 46.671ZM158 238.674V86.602l80.837 46.672v54.111a8 8 0 0 1-4 6.928L158 238.674Z"/><defs><linearGradient id="a" x1="128" x2="128" y1="1.238" y2="254.762" gradientUnits="userSpaceOnUse"><stop stop-color="#E1D599"/><stop offset=".715" stop-color="#fff"/></linearGradient></defs></svg>
