<svg xmlns="http://www.w3.org/2000/svg" width="256" height="256" fill="none"><g clip-path="url(#a)"><path fill="#1B251C" fill-rule="evenodd" d="M238.837 187.385a8 8 0 0 1-4 6.928l-102.846 59.378a8 8 0 0 1-8 0L21.163 194.325a8 8 0 0 1-4-6.928V68.607a8 8 0 0 1 4-6.929L123.99 2.309a8 8 0 0 1 8 0l102.846 59.378a8 8 0 0 1 4 6.928v118.77Z" clip-rule="evenodd"/><mask id="b" width="222" height="254" x="17" y="1" maskUnits="userSpaceOnUse" style="mask-type:alpha"><path fill="#fff" fill-rule="evenodd" d="M238.837 187.385a8 8 0 0 1-4 6.928l-102.846 59.378a8 8 0 0 1-8 0L21.163 194.325a8 8 0 0 1-4-6.928V68.607a8 8 0 0 1 4-6.929L123.99 2.309a8 8 0 0 1 8 0l102.846 59.378a8 8 0 0 1 4 6.928v118.77Z" clip-rule="evenodd"/></mask><g mask="url(#b)"><path fill="url(#c)" fill-rule="evenodd" d="M158 0H98v17.32L-93.702 128l30 51.962L98 86.602V256h60V86.603l161.703 93.359 30-51.962L158 17.32V0Z" clip-rule="evenodd"/></g></g><defs><linearGradient id="c" x1="128" x2="128" y1="0" y2="256" gradientUnits="userSpaceOnUse"><stop stop-color="#E1D599"/><stop offset=".715" stop-color="#fff"/></linearGradient><clipPath id="a"><path fill="#fff" d="M0 0h256v256H0z"/></clipPath></defs></svg>
