<svg xmlns="http://www.w3.org/2000/svg" width="256" height="256" fill="none"><g filter="url(#a)"><path fill="url(#b)" fill-rule="evenodd" d="M222.212 178.477a6.8 6.8 0 0 1-3.401 5.889l-87.419 50.471a6.799 6.799 0 0 1-6.8 0l-87.404-50.461a6.799 6.799 0 0 1-3.4-5.889V77.515a6.8 6.8 0 0 1 3.4-5.889l87.404-50.463a6.8 6.8 0 0 1 6.8 0l87.419 50.47a6.8 6.8 0 0 1 3.401 5.89v100.954Z" clip-rule="evenodd"/><path fill="#3E4636" d="M102.5 33.918 37.188 71.626a7.145 7.145 0 0 0-.183.11L102.5 33.922v-.004ZM33.788 132.483v46.004a6.799 6.799 0 0 0 3.4 5.889l65.312 37.707V92.813l-68.712 39.67ZM153.5 222.073V92.813l68.711 39.67v45.994a6.8 6.8 0 0 1-3.4 5.889L153.5 222.073Z"/></g><defs><linearGradient id="b" x1="128" x2="128" y1="19.2" y2="236.8" gradientUnits="userSpaceOnUse"><stop stop-color="#E1D599"/><stop offset=".715" stop-color="#fff"/></linearGradient><filter id="a" width="212.423" height="239.496" x="25.788" y="12.252" color-interpolation-filters="sRGB" filterUnits="userSpaceOnUse"><feFlood flood-opacity="0" result="BackgroundImageFix"/><feColorMatrix in="SourceAlpha" result="hardAlpha" values="0 0 0 0 0 0 0 0 0 0 0 0 0 0 0 0 0 0 127 0"/><feOffset dx="4" dy="4"/><feGaussianBlur stdDeviation="6"/><feComposite in2="hardAlpha" operator="out"/><feColorMatrix values="0 0 0 0 0 0 0 0 0 0 0 0 0 0 0 0 0 0 0.15 0"/><feBlend in2="BackgroundImageFix" result="effect1_dropShadow_49_62"/><feBlend in="SourceGraphic" in2="effect1_dropShadow_49_62" result="shape"/></filter></defs></svg>
