<svg xmlns="http://www.w3.org/2000/svg" width="256" height="256" fill="none"><g filter="url(#a)"><path fill="url(#b)" d="M222.212 132.483v-54.96a6.8 6.8 0 0 0-3.4-5.89l-87.419-50.47a6.8 6.8 0 0 0-6.8 0L102.5 33.918v.004L37.005 71.736a6.8 6.8 0 0 0-3.216 5.78v54.967l68.711-39.67v129.27l22.093 12.754a6.797 6.797 0 0 0 6.799 0l22.108-12.764V92.813l68.712 39.67Z"/><path fill="#3E4636" d="M102.5 33.918 37.189 71.626a6.868 6.868 0 0 0-.184.11L102.5 33.922v-.004ZM33.789 132.483v46.004a6.8 6.8 0 0 0 3.4 5.889l65.311 37.707V92.813l-68.711 39.67ZM153.5 222.073V92.813l68.712 39.67v45.994a6.8 6.8 0 0 1-3.4 5.889L153.5 222.073Z"/></g><defs><linearGradient id="b" x1="128" x2="128" y1="20.252" y2="235.748" gradientUnits="userSpaceOnUse"><stop stop-color="#E1D599"/><stop offset=".715" stop-color="#fff"/></linearGradient><filter id="a" width="212.423" height="239.496" x="25.789" y="12.252" color-interpolation-filters="sRGB" filterUnits="userSpaceOnUse"><feFlood flood-opacity="0" result="BackgroundImageFix"/><feColorMatrix in="SourceAlpha" result="hardAlpha" values="0 0 0 0 0 0 0 0 0 0 0 0 0 0 0 0 0 0 127 0"/><feOffset dx="4" dy="4"/><feGaussianBlur stdDeviation="6"/><feComposite in2="hardAlpha" operator="out"/><feColorMatrix values="0 0 0 0 0 0 0 0 0 0 0 0 0 0 0 0 0 0 0.15 0"/><feBlend in2="BackgroundImageFix" result="effect1_dropShadow_49_62"/><feBlend in="SourceGraphic" in2="effect1_dropShadow_49_62" result="shape"/></filter></defs></svg>
