<svg xmlns="http://www.w3.org/2000/svg" width="256" height="256" fill="none"><path fill="url(#a)" fill-rule="evenodd" d="M238.837 187.385a8 8 0 0 1-4 6.928l-102.846 59.378a8 8 0 0 1-8 0L21.163 194.325a8 8 0 0 1-4-6.928V68.607a8 8 0 0 1 4-6.929L123.99 2.309a8 8 0 0 1 8 0l102.846 59.378a8 8 0 0 1 4 6.928v118.77Z" clip-rule="evenodd"/><path fill="#3E4636" d="M98 17.316 21.163 61.678a8.122 8.122 0 0 0-.216.129L98 17.32v-.005ZM17.163 133.274v54.123a8 8 0 0 0 4 6.928L98 238.685V86.603l-80.837 46.671ZM158 238.674V86.602l80.837 46.672v54.111a8 8 0 0 1-4 6.928L158 238.674Z"/><defs><linearGradient id="a" x1="128" x2="128" y1="0" y2="256" gradientUnits="userSpaceOnUse"><stop stop-color="#E1D599"/><stop offset=".715" stop-color="#fff"/></linearGradient></defs></svg>
