<svg xmlns="http://www.w3.org/2000/svg" width="256" height="256" fill="none"><g filter="url(#a)"><path fill="#1B251C" fill-rule="evenodd" d="M216.67 175.508a6.4 6.4 0 0 1-3.2 5.542l-82.277 47.503a6.401 6.401 0 0 1-6.4 0L42.53 181.06a6.4 6.4 0 0 1-3.2-5.543V80.485a6.4 6.4 0 0 1 3.2-5.543l82.263-47.494a6.4 6.4 0 0 1 6.4 0l82.277 47.501a6.4 6.4 0 0 1 3.2 5.543v95.016Z" clip-rule="evenodd"/></g><mask id="b" width="178" height="204" x="39" y="26" maskUnits="userSpaceOnUse" style="mask-type:alpha"><path fill="#fff" fill-rule="evenodd" d="M216.67 175.508a6.4 6.4 0 0 1-3.2 5.542l-82.277 47.503a6.401 6.401 0 0 1-6.4 0L42.53 181.06a6.4 6.4 0 0 1-3.2-5.543V80.485a6.4 6.4 0 0 1 3.2-5.543l82.263-47.494a6.4 6.4 0 0 1 6.4 0l82.277 47.501a6.4 6.4 0 0 1 3.2 5.543v95.016Z" clip-rule="evenodd"/></mask><g mask="url(#b)"><path fill="url(#c)" fill-rule="evenodd" d="M152 25.6h-48v13.856L-49.362 128l24 41.569L104 94.882V230.4h48V94.882l129.362 74.687 24-41.569L152 39.456V25.6Z" clip-rule="evenodd"/></g><defs><linearGradient id="c" x1="128" x2="128" y1="25.6" y2="230.4" gradientUnits="userSpaceOnUse"><stop stop-color="#E1D599"/><stop offset=".715" stop-color="#fff"/></linearGradient><filter id="a" width="201.339" height="226.82" x="31.33" y="18.59" color-interpolation-filters="sRGB" filterUnits="userSpaceOnUse"><feFlood flood-opacity="0" result="BackgroundImageFix"/><feColorMatrix in="SourceAlpha" result="hardAlpha" values="0 0 0 0 0 0 0 0 0 0 0 0 0 0 0 0 0 0 127 0"/><feOffset dx="4" dy="4"/><feGaussianBlur stdDeviation="6"/><feComposite in2="hardAlpha" operator="out"/><feColorMatrix values="0 0 0 0 0 0 0 0 0 0 0 0 0 0 0 0 0 0 0.15 0"/><feBlend in2="BackgroundImageFix" result="effect1_dropShadow_49_62"/><feBlend in="SourceGraphic" in2="effect1_dropShadow_49_62" result="shape"/></filter></defs></svg>
